<?xml version="1.0" encoding="UTF-8"?>
<svg id="Capa_1" data-name="Capa 1" xmlns="http://www.w3.org/2000/svg" viewBox="0 0 461.96 132.12">
  <defs>
    <style>
      .cls-1 {
        fill: #1a1a35;
      }
    </style>
  </defs>
  <path class="cls-1" d="M282.66,25.92c6.79,0,13.28,1.05,19.47,3.16,6.18,2.11,11.82,5.2,16.92,9.28,5.1,4.08,9.14,9.62,12.13,16.61,2.99,7,4.48,14.98,4.48,23.95v50.96h-20.39v-13.05c-.27.41-.78.99-1.53,1.73-.75.75-2.14,1.97-4.18,3.67-2.04,1.7-4.28,3.23-6.73,4.59-2.45,1.36-5.54,2.58-9.28,3.67-3.74,1.09-7.58,1.63-11.52,1.63h-.2c-15.77,0-28.51-5.2-38.22-15.59-9.72-10.4-14.58-23-14.58-37.81,0-6.52,1.09-12.88,3.26-19.06,2.17-6.18,5.37-11.83,9.58-16.92,4.21-5.1,9.82-9.18,16.82-12.23,7-3.06,14.85-4.59,23.55-4.59h.41ZM282.66,44.26c-9.52,0-17.33,3.33-23.44,9.99-6.12,6.66-9.17,14.88-9.17,24.67s3.06,18.01,9.17,24.67c6.12,6.66,13.93,9.99,23.44,9.99s17.46-3.33,23.85-9.99c6.39-6.66,9.58-14.85,9.58-24.56s-3.19-17.94-9.58-24.67c-6.39-6.73-14.34-10.09-23.85-10.09Z"/>
  <path class="cls-1" d="M398.4,28.16v23.45c-9.65,0-17.5,2.72-23.54,8.15-6.05,5.44-9.07,12.57-9.07,21.41v50.96h-20.39v-50.96c0-16.31,4.86-29.22,14.57-38.73,9.71-9.51,22.53-14.27,38.43-14.27Z"/>
  <path class="cls-1" d="M168.83,30.2v17.94h-20.79c-10.19,0-15.29,3.26-15.29,9.79v1.22c.27,2.04,1.83,4.18,4.69,6.42,2.85,2.24,6.22,4.45,10.09,6.63,3.87,2.18,7.78,4.62,11.72,7.34,3.94,2.72,7.24,6.15,9.89,10.29,2.65,4.15,3.97,8.74,3.97,13.76,0,1.22-.07,2.58-.2,4.08-2.31,16.31-13.73,24.46-34.25,24.46h-22.83v-18.14h24.05c4.35,0,7.92-.92,10.7-2.75,2.78-1.84,4.18-4.18,4.18-7.03,0-.54-.07-1.15-.21-1.83-.54-2.31-2.31-4.55-5.3-6.73-2.99-2.17-6.39-4.28-10.19-6.32-3.81-2.04-7.58-4.31-11.32-6.83-3.74-2.51-6.9-5.74-9.48-9.68-2.58-3.94-3.87-8.42-3.87-13.45,0-9.1,3.29-16.24,9.88-21.41,6.59-5.16,14.51-7.74,23.75-7.74h20.79Z"/>
  <path class="cls-1" d="M457.68,30.2v17.94h-20.79c-10.19,0-15.29,3.26-15.29,9.79v1.22c.27,2.04,1.83,4.18,4.69,6.42,2.85,2.24,6.22,4.45,10.09,6.63,3.87,2.18,7.78,4.62,11.72,7.34,3.94,2.72,7.24,6.15,9.89,10.29,2.65,4.15,3.97,8.74,3.97,13.76,0,1.22-.07,2.58-.2,4.08-2.31,16.31-13.73,24.46-34.25,24.46h-22.83v-18.14h24.05c4.35,0,7.92-.92,10.7-2.75,2.78-1.84,4.18-4.18,4.18-7.03,0-.54-.07-1.15-.21-1.83-.54-2.31-2.31-4.55-5.3-6.73-2.99-2.17-6.39-4.28-10.19-6.32-3.81-2.04-7.58-4.31-11.32-6.83-3.74-2.51-6.9-5.74-9.48-9.68-2.58-3.94-3.87-8.42-3.87-13.45,0-9.1,3.29-16.24,9.88-21.41,6.59-5.16,14.51-7.74,23.75-7.74h20.79Z"/>
  <path class="cls-1" d="M209.61,104.5c-6.05-5.91-9.07-13.69-9.07-23.34v-33.64h27.72v-17.33h-27.72c.14-10.07.28-20.13.42-30.2-7.13,3.11-14.26,6.22-21.38,9.33,0,3.86,0,9.57.01,16.52.02,8.26.05,14.39.06,16.29.15,28.43.33,30.19.51,39.03.09,4.48.36,12.55,4.53,21.46,2.57,5.48,6.22,10.46,10.97,14.92,10.32,9.72,22.83,14.57,37.51,14.57v-18.75c-9.65,0-17.5-2.96-23.54-8.87Z"/>
  <g>
    <path class="cls-1" d="M34.67,92.55v-1.68c-.01-5.32,4.3-9.65,9.63-9.64l27.13.03c-4.83-11.27-6.47-29.7-11.17-41.38-2.14-5.04-4.94-9.45-8.9-13.29C23.41,27.23.71,49.88,0,77.83c4.12,4.21,8.86,7.2,14.33,9.34,6.61,2.54,13.54,3.82,20.34,5.38Z"/>
    <path class="cls-1" d="M102,98.4l-24.65-.03c-.23,0-.43.14-.53.35-3.39,7.45-8.51,8.79-13.34,9.4,5.34,6.39,6.91,13.31,4.74,21.69,15.45-4.7,27.92-16.32,33.77-31.42Z"/>
    <path class="cls-1" d="M58.42,110.53c-1.45-1.8-3.09-3.32-4.86-4.63-3.91-2.9-8.48-4.75-13.23-6.14-2.51-.73-5.06-1.35-7.59-1.92-11.91-2.69-22.2-4.51-32.38-12.11,3.61,29.7,31.05,50.23,60.14,45.79,1.99-2.2,3.18-4.52,2.95-7.55-.3-4.87-1.95-9.61-5.03-13.43Z"/>
    <path class="cls-1" d="M105.88,80.7c-1.75-24.38-13.57-49.59-46.62-53.73,9.56,12.71,9.93,26.34,14.12,40.64.71,2.41,2.18,8.76,3.35,11.93.25.69.91,1.14,1.64,1.14l27.5.03Z"/>
  </g>
</svg>