<?xml version="1.0" encoding="UTF-8"?>
<svg id="Capa_1" data-name="Capa 1" xmlns="http://www.w3.org/2000/svg" viewBox="0 0 149.52 149.03">
  <defs>
    <style>
      .cls-1 {
        fill: #f0e8d4;
      }
    </style>
  </defs>
  <path class="cls-1" d="M48.96,93.15v-2.38c-.02-7.52,6.08-13.62,13.59-13.61l38.31.04c-6.83-15.92-9.13-41.94-15.78-58.43-3.02-7.12-6.98-13.34-12.57-18.77C33.06.9,1,32.89,0,72.36c5.82,5.94,12.52,10.17,20.24,13.19,9.33,3.58,19.12,5.39,28.72,7.6Z"/>
  <path class="cls-1" d="M144.03,101.4l-34.81-.04c-.32,0-.61.2-.74.49-4.78,10.52-12.02,12.41-18.83,13.28,7.55,9.02,9.76,18.8,6.69,30.63,21.81-6.63,39.43-23.04,47.69-44.36Z"/>
  <path class="cls-1" d="M82.5,118.54c-2.05-2.54-4.36-4.69-6.86-6.54-5.52-4.1-11.97-6.71-18.68-8.68-3.54-1.04-7.15-1.9-10.72-2.71-16.82-3.8-31.34-6.37-45.73-17.1,5.1,41.93,43.85,70.93,84.92,64.66,2.81-3.11,4.49-6.39,4.17-10.67-.42-6.88-2.75-13.57-7.1-18.97Z"/>
  <path class="cls-1" d="M149.52,76.41C147.04,41.98,130.35,6.38,83.69.54c13.5,17.94,14.02,37.2,19.94,57.38,1,3.41,3.07,12.37,4.73,16.84.36.97,1.29,1.61,2.32,1.61l38.84.04Z"/>
</svg>