<?xml version="1.0" encoding="UTF-8"?>
<svg id="Capa_1" data-name="Capa 1" xmlns="http://www.w3.org/2000/svg" viewBox="0 0 372.21 246.79">
  <defs>
    <style>
      .cls-1 {
        fill: #f0e8d4;
      }

      .cls-2 {
        fill: #2b2e72;
      }
    </style>
  </defs>
  <g>
    <path class="cls-1" d="M136.2,154.26v-3.93c-.03-12.45,10.06-22.56,22.51-22.54l63.44.06c-11.3-26.36-15.12-69.45-26.13-96.76-5-11.78-11.56-22.09-20.82-31.09C109.86,1.5,56.78,54.46,55.12,119.83c9.63,9.84,20.73,16.84,33.52,21.84,15.46,5.93,31.67,8.93,47.56,12.59Z"/>
    <path class="cls-1" d="M293.64,167.93l-57.65-.06c-.53,0-1.01.33-1.23.81-7.92,17.43-19.91,20.56-31.19,21.99,12.5,14.93,16.16,31.14,11.08,50.72,36.12-10.98,65.3-38.15,78.98-73.46Z"/>
    <path class="cls-1" d="M191.74,196.31c-3.39-4.21-7.23-7.76-11.36-10.83-9.14-6.78-19.82-11.11-30.93-14.37-5.86-1.72-11.84-3.15-17.76-4.49-27.85-6.29-51.91-10.56-75.73-28.32,8.45,69.44,72.62,117.46,140.63,107.08,4.65-5.15,7.43-10.58,6.9-17.66-.7-11.4-4.56-22.48-11.75-31.41Z"/>
    <path class="cls-1" d="M302.72,126.54c-4.09-57.02-31.73-115.98-109.01-125.65,22.36,29.71,23.22,61.6,33.02,95.03,1.65,5.64,5.09,20.48,7.83,27.89.6,1.61,2.13,2.66,3.85,2.67l64.31.07Z"/>
  </g>
  <g>
    <path class="cls-2" d="M235.4,106.6c-3.37-2.7-7.11-4.74-11.2-6.14-4.09-1.39-8.39-2.09-12.88-2.09h-.27c-5.76,0-10.95,1.01-15.58,3.03-4.63,2.02-8.34,4.72-11.13,8.1-2.79,3.37-4.9,7.11-6.34,11.2-1.44,4.09-2.16,8.3-2.16,12.61,0,9.8,3.21,18.14,9.64,25.02,6.43,6.88,14.86,10.32,25.29,10.32h.13c2.61,0,5.15-.36,7.62-1.08,2.47-.72,4.52-1.53,6.14-2.43,1.62-.9,3.1-1.91,4.45-3.04,1.35-1.12,2.27-1.93,2.77-2.43.49-.49.83-.88,1.01-1.15v8.63h13.49v-33.72c0-5.93-.99-11.22-2.97-15.85-1.98-4.63-4.65-8.3-8.03-10.99ZM227.1,149.77c-4.23,4.41-9.49,6.61-15.78,6.61s-11.47-2.2-15.51-6.61c-4.05-4.4-6.07-9.85-6.07-16.32s2.02-11.91,6.07-16.32c4.05-4.4,9.22-6.61,15.51-6.61s11.55,2.23,15.78,6.68c4.23,4.45,6.34,9.89,6.34,16.32s-2.11,11.85-6.34,16.25Z"/>
    <path class="cls-2" d="M252.84,132.84v33.72h13.49v-33.72c0-5.85,2-10.57,6-14.17,4-3.6,9.19-5.39,15.58-5.39v-15.51c-10.52,0-19,3.15-25.43,9.44-6.43,6.3-9.64,14.84-9.64,25.63Z"/>
    <path class="cls-2" d="M129.65,132.43c-2.61-1.8-5.19-3.42-7.76-4.86-2.56-1.44-4.79-2.9-6.68-4.39-1.89-1.48-2.92-2.9-3.1-4.25v-.81c0-4.32,3.37-6.48,10.12-6.48h13.76v-11.87h-13.76c-6.12,0-11.35,1.71-15.72,5.12-4.36,3.42-6.54,8.14-6.54,14.17,0,3.33.85,6.3,2.56,8.9,1.71,2.61,3.8,4.75,6.27,6.41,2.47,1.67,4.97,3.17,7.49,4.52,2.52,1.35,4.76,2.74,6.74,4.18,1.98,1.44,3.15,2.92,3.51,4.45.09.45.14.86.14,1.21,0,1.89-.92,3.44-2.77,4.66-1.84,1.21-4.21,1.82-7.08,1.82h-15.92v12.01h15.11c13.58,0,21.13-5.4,22.66-16.19.09-.99.13-1.89.13-2.7,0-3.33-.88-6.36-2.63-9.11-1.75-2.74-3.94-5.01-6.54-6.81Z"/>
    <path class="cls-2" d="M327.34,139.24c-1.75-2.74-3.94-5.01-6.54-6.81-2.61-1.8-5.19-3.42-7.76-4.86-2.56-1.44-4.79-2.9-6.68-4.39-1.89-1.48-2.92-2.9-3.1-4.25v-.81c0-4.32,3.37-6.48,10.12-6.48h13.76v-11.87h-13.76c-6.12,0-11.35,1.71-15.72,5.12-4.36,3.42-6.54,8.14-6.54,14.17,0,3.33.85,6.3,2.56,8.9,1.71,2.61,3.8,4.75,6.27,6.41,2.47,1.67,4.97,3.17,7.49,4.52,2.52,1.35,4.76,2.74,6.74,4.18,1.98,1.44,3.15,2.92,3.51,4.45.09.45.14.86.14,1.21,0,1.89-.92,3.44-2.77,4.66-1.84,1.21-4.21,1.82-7.08,1.82h-15.92v12.01h15.11c13.58,0,21.13-5.4,22.66-16.19.09-.99.13-1.89.13-2.7,0-3.33-.88-6.36-2.63-9.11Z"/>
    <path class="cls-2" d="M156.98,133.51v-22.26h18.35v-11.47h-18.35v-21.65c-4.6,1.66-9.21,3.33-13.81,4.99-.13,18.18.01,35.02.32,50.38.06,2.97.24,8.31,2.99,14.2,1.7,3.63,4.12,6.92,7.26,9.87,6.83,6.43,15.11,9.64,24.82,9.64v-12.41c-6.39,0-11.58-1.96-15.58-5.87-4-3.91-6-9.06-6-15.45Z"/>
    <path class="cls-2" d="M63.02,154.84c-5.58,0-10.3-1.82-14.16-5.46-3.87-3.64-6.2-8.2-7.01-13.69,13.49-.09,24.15-.14,31.97-.14s15.96.05,23.34.14c.09-1.44.13-2.61.13-3.51,0-4.34-.67-8.4-1.99-12.17-5-13.12-17.69-22.44-32.57-22.44-19.25,0-34.85,15.6-34.85,34.85,0,6.49,1.78,12.55,4.86,17.75.06-.14.1-.28.16-.42,1.49,2.57,3.35,4.99,5.58,7.24,6.74,6.84,14.93,10.25,24.55,10.25,1.11,0,2.2-.06,3.28-.15,8.83-.9,16.69-5.1,22.32-11.35l-9.01-9.01c-3.96,5.4-9.49,8.09-16.59,8.09ZM44.8,119.71c1.35-2.24,3.1-4.13,5.27-5.68.22-.16.45-.32.68-.47.61-.4,1.24-.76,1.89-1.08.15-.08.3-.15.46-.22,2.92-1.38,6.23-2.07,9.92-2.07.28,0,.56,0,.84.01.08,0,.16,0,.25,0,.2,0,.41.02.61.03.08,0,.16,0,.25.02.27.02.53.04.79.07.04,0,.08,0,.12.01.22.02.44.05.66.08.09.01.19.03.28.04.17.02.34.05.51.08.09.02.19.03.28.05.24.04.47.09.71.14.08.02.16.04.25.06.16.04.32.07.48.11.11.03.22.06.32.08.13.04.27.07.4.11.11.03.22.06.32.09.19.06.39.12.58.19.12.04.24.09.37.13.12.04.24.09.35.13.12.04.23.09.35.14.11.04.21.09.32.13.11.05.23.1.34.15,1.2.54,2.33,1.2,3.38,1.98,3.46,2.56,5.87,6.09,7.22,10.59h-40.33c.54-1.79,1.26-3.43,2.15-4.91Z"/>
  </g>
</svg>