<?xml version="1.0" encoding="UTF-8"?>
<svg id="Capa_1" data-name="Capa 1" xmlns="http://www.w3.org/2000/svg" viewBox="0 0 346.17 143.14">
  <defs>
    <style>
      .cls-1 {
        fill: #b7d051;
      }

      .cls-2 {
        fill: #1a1a35;
      }
    </style>
  </defs>
  <g>
    <path class="cls-2" d="M211.81,19.42c5.09,0,9.95.79,14.59,2.37,4.63,1.58,8.86,3.9,12.68,6.95,3.82,3.05,6.85,7.21,9.09,12.45,2.24,5.25,3.36,11.23,3.36,17.95v38.19h-15.28v-9.78c-.2.31-.59.74-1.15,1.3-.56.56-1.6,1.48-3.13,2.75-1.53,1.27-3.21,2.42-5.04,3.44-1.83,1.02-4.15,1.94-6.95,2.75-2.8.82-5.68,1.22-8.63,1.22h-.15c-11.81,0-21.36-3.9-28.64-11.69-7.28-7.79-10.92-17.24-10.92-28.34,0-4.89.81-9.65,2.44-14.28,1.63-4.63,4.02-8.86,7.18-12.68,3.16-3.82,7.36-6.88,12.6-9.17,5.24-2.29,11.12-3.44,17.64-3.44h.31ZM211.81,33.17c-7.13,0-12.99,2.5-17.57,7.49-4.58,4.99-6.87,11.15-6.87,18.48s2.29,13.5,6.87,18.48c4.58,4.99,10.44,7.49,17.57,7.49s13.08-2.49,17.87-7.49c4.79-4.99,7.18-11.12,7.18-18.41s-2.39-13.44-7.18-18.48c-4.79-5.04-10.75-7.56-17.87-7.56Z"/>
    <path class="cls-2" d="M298.55,21.1v17.57c-7.23,0-13.11,2.04-17.64,6.11-4.53,4.08-6.8,9.42-6.8,16.04v38.19h-15.28v-38.19c0-12.22,3.64-21.9,10.92-29.03,7.28-7.13,16.88-10.69,28.8-10.69Z"/>
    <path class="cls-2" d="M126.51,22.63v13.44h-15.58c-7.64,0-11.46,2.45-11.46,7.33v.92c.2,1.53,1.37,3.13,3.51,4.81,2.14,1.68,4.66,3.34,7.56,4.97,2.9,1.63,5.83,3.46,8.78,5.5,2.95,2.04,5.42,4.61,7.41,7.71,1.99,3.11,2.98,6.55,2.98,10.31,0,.92-.05,1.94-.15,3.05-1.73,12.22-10.29,18.33-25.66,18.33h-17.11v-13.6h18.02c3.26,0,5.93-.69,8.02-2.06,2.09-1.38,3.13-3.13,3.13-5.27,0-.41-.05-.86-.15-1.37-.41-1.73-1.73-3.41-3.97-5.04-2.24-1.63-4.79-3.21-7.64-4.74-2.85-1.53-5.68-3.23-8.48-5.12-2.8-1.88-5.17-4.3-7.1-7.26-1.94-2.95-2.9-6.31-2.9-10.08,0-6.82,2.47-12.17,7.41-16.04,4.94-3.87,10.87-5.8,17.8-5.8h15.58Z"/>
    <path class="cls-2" d="M342.97,22.63v13.44h-15.58c-7.64,0-11.46,2.45-11.46,7.33v.92c.2,1.53,1.37,3.13,3.51,4.81,2.14,1.68,4.66,3.34,7.56,4.97,2.9,1.63,5.83,3.46,8.78,5.5,2.95,2.04,5.42,4.61,7.41,7.71,1.99,3.11,2.98,6.55,2.98,10.31,0,.92-.05,1.94-.15,3.05-1.73,12.22-10.29,18.33-25.66,18.33h-17.11v-13.6h18.02c3.26,0,5.93-.69,8.02-2.06,2.09-1.38,3.13-3.13,3.13-5.27,0-.41-.05-.86-.15-1.37-.41-1.73-1.73-3.41-3.97-5.04-2.24-1.63-4.79-3.21-7.64-4.74-2.85-1.53-5.68-3.23-8.48-5.12-2.8-1.88-5.17-4.3-7.1-7.26-1.94-2.95-2.9-6.31-2.9-10.08,0-6.82,2.47-12.17,7.41-16.04,4.94-3.87,10.87-5.8,17.8-5.8h15.58Z"/>
    <path class="cls-2" d="M157.08,78.31c-4.53-4.43-6.8-10.26-6.8-17.49v-25.21h20.78v-12.98h-20.78c.11-7.54.21-15.09.32-22.63-5.34,2.33-10.68,4.66-16.02,6.99,0,2.89,0,7.17.01,12.38.01,6.19.04,10.78.04,12.21.11,21.31.25,22.62.38,29.24.07,3.36.27,9.41,3.39,16.08,1.92,4.11,4.66,7.84,8.22,11.18,7.74,7.28,17.11,10.92,28.11,10.92v-14.05c-7.23,0-13.11-2.22-17.64-6.64Z"/>
    <g>
      <path class="cls-1" d="M25.98,69.36v-1.26c0-3.99,3.22-7.23,7.21-7.22l20.33.02c-3.62-8.45-4.84-22.26-8.37-31.01-1.6-3.78-3.71-7.08-6.67-9.96C17.54,20.4.53,37.37,0,58.32c3.09,3.15,6.64,5.4,10.74,7,4.95,1.9,10.15,2.86,15.24,4.03Z"/>
      <path class="cls-1" d="M76.43,73.74l-18.47-.02c-.17,0-.32.1-.39.26-2.54,5.58-6.38,6.59-9.99,7.05,4.01,4.78,5.18,9.98,3.55,16.25,11.57-3.52,20.92-12.23,25.31-23.54Z"/>
      <path class="cls-1" d="M43.78,82.83c-1.09-1.35-2.32-2.49-3.64-3.47-2.93-2.17-6.35-3.56-9.91-4.6-1.88-.55-3.79-1.01-5.69-1.44-8.92-2.01-16.63-3.38-24.27-9.08,2.71,22.25,23.27,37.64,45.06,34.31,1.49-1.65,2.38-3.39,2.21-5.66-.23-3.65-1.46-7.2-3.77-10.07Z"/>
      <path class="cls-1" d="M79.34,60.47c-1.31-18.27-10.17-37.16-34.93-40.26,7.16,9.52,7.44,19.74,10.58,30.45.53,1.81,1.63,6.56,2.51,8.94.19.52.68.85,1.23.85l20.61.02Z"/>
    </g>
  </g>
  <g>
    <path class="cls-2" d="M80.23,130.11c0,4.37-3.59,7.93-7.96,7.93-2.45,0-4.66-1.13-6.14-2.89v7.99h-1.79v-13.03c0-4.37,3.56-7.96,7.93-7.96s7.96,3.59,7.96,7.96ZM66.16,130.11c0,3.4,2.71,6.13,6.1,6.13s6.14-2.74,6.14-6.13-2.74-6.14-6.14-6.14-6.1,2.74-6.1,6.14Z"/>
    <path class="cls-2" d="M107.67,130.11v7.93h-1.83v-2.89c-1.45,1.76-3.65,2.89-6.14,2.89-4.37,0-7.93-3.56-7.93-7.93s3.56-7.96,7.93-7.96,7.96,3.59,7.96,7.96ZM93.57,130.11c0,3.4,2.74,6.13,6.13,6.13s6.14-2.74,6.14-6.13-2.74-6.14-6.14-6.14-6.13,2.74-6.13,6.14ZM104.24,117.06l-3.81,2.55h-2.36l2.89-2.55h3.27Z"/>
    <path class="cls-2" d="M135.11,117.06v13.06c0,4.37-3.59,7.93-7.96,7.93s-7.93-3.56-7.93-7.93,3.56-7.96,7.93-7.96c2.49,0,4.69,1.13,6.14,2.93v-8.02h1.83ZM121.02,130.11c0,3.4,2.74,6.13,6.13,6.13s6.14-2.74,6.14-6.13-2.74-6.14-6.14-6.14-6.13,2.74-6.13,6.14Z"/>
    <path class="cls-2" d="M162.55,130.11h-14.1c0,3.4,2.74,6.13,6.14,6.13,2.49,0,4.62-1.48,5.57-3.59l1.64.76c-1.26,2.74-4,4.62-7.21,4.62-4.37,0-7.93-3.56-7.93-7.93s3.56-7.96,7.93-7.96,7.96,3.59,7.96,7.96ZM148.74,128.29h11.74c-.79-2.49-3.12-4.31-5.88-4.31s-5.1,1.83-5.85,4.31Z"/>
    <path class="cls-2" d="M175.9,117.06v20.99h-1.79v-20.99h1.79Z"/>
    <path class="cls-2" d="M215.15,137.79c-.35.22-.57.25-1.1.25-2.39,0-4.34-1.98-4.34-4.34v-16.64h1.79v6.92h2.49v1.79h-2.49c0,2.64-.03,7.68-.03,7.68.06,1.64,1.16,2.8,2.58,2.8.22,0,.47-.06.72-.13l.38,1.67Z"/>
    <path class="cls-2" d="M240.42,130.11c0,4.37-3.59,7.93-7.96,7.93s-7.93-3.56-7.93-7.93,3.56-7.96,7.93-7.96,7.96,3.59,7.96,7.96ZM226.32,130.11c0,3.4,2.74,6.13,6.13,6.13s6.14-2.74,6.14-6.13-2.74-6.14-6.14-6.14-6.13,2.74-6.13,6.14Z"/>
    <path class="cls-2" d="M253.76,122.15v5.88c0,1.16,0,2.3.03,3.43,0,2.64,2.14,4.78,4.75,4.78s4.78-2.14,4.78-4.78v-9.31h1.79l.03,9.31c0,3.62-2.96,6.58-6.61,6.58s-6.58-2.96-6.58-6.58v-9.31h1.79Z"/>
    <path class="cls-2" d="M281.43,124.01c-.22-.06-.41-.09-.63-.09-1.29,0-2.27,1.1-2.27,2.36-.03.16-.03,8.24-.03,11.77h-1.79v-11.52c0-2.42,1.76-4.34,4.15-4.34.35,0,.6.03.97.06l-.41,1.76Z"/>
  </g>
</svg>