<?xml version="1.0" encoding="UTF-8"?>
<svg id="Capa_1" data-name="Capa 1" xmlns="http://www.w3.org/2000/svg" viewBox="0 0 435.07 434.58">
  <defs>
    <style>
      .cls-1 {
        fill: #b7d051;
      }

      .cls-2, .cls-3 {
        fill: #f0e8d4;
      }

      .cls-3 {
        stroke: #f0e8d4;
        stroke-miterlimit: 10;
      }

      .cls-4 {
        fill: #2b2e72;
      }
    </style>
  </defs>
  <circle class="cls-4" cx="217.19" cy="216.61" r="185.22"/>
  <g>
    <path class="cls-1" d="M182.03,239.5v-2.99c-.02-9.47,7.65-17.16,17.12-17.15l48.25.05c-8.6-20.05-11.5-52.83-19.87-73.6-3.8-8.96-8.8-16.8-15.83-23.64-49.7,1.14-90.08,41.42-91.34,91.15,7.33,7.48,15.76,12.81,25.5,16.61,11.76,4.51,24.09,6.8,36.18,9.57Z"/>
    <path class="cls-1" d="M301.78,249.89l-43.85-.04c-.4,0-.77.25-.94.62-6.03,13.26-15.15,15.64-23.72,16.73,9.51,11.36,12.29,23.68,8.43,38.58,27.47-8.35,49.67-29.02,60.07-55.88Z"/>
    <path class="cls-1" d="M224.27,271.48c-2.58-3.2-5.5-5.91-8.64-8.24-6.95-5.16-15.08-8.45-23.53-10.93-4.46-1.31-9-2.4-13.51-3.41-21.18-4.78-39.48-8.03-57.6-21.54,6.43,52.82,55.24,89.35,106.97,81.45,3.53-3.91,5.65-8.05,5.25-13.44-.53-8.67-3.47-17.1-8.94-23.89Z"/>
    <path class="cls-1" d="M308.69,218.41c-3.11-43.37-24.14-88.21-82.92-95.57,17,22.6,17.66,46.85,25.12,72.28,1.26,4.29,3.87,15.58,5.95,21.21.45,1.23,1.62,2.03,2.93,2.03l48.92.05Z"/>
  </g>
  <g>
    <path class="cls-3" d="M183.22,71.32l-10.89,3.11.15-.04-.5.14c-.27.08-.47.38-.38.69l2.24,7.83,7.18-2.05.63,2.22-7.18,2.05,2.84,9.93c.11.38.35.52.7.42l11.23-3.21.62,2.18-11.23,3.21c-1.49.43-3.06-.45-3.49-1.94l-5.72-20.02c-.44-1.53.44-3.1,1.93-3.53l11.23-3.21.63,2.22Z"/>
    <path class="cls-3" d="M199.29,67.17c1.15.44,2.41,1.38,3.82,2.82l-1.86,1.87c-1.13-1.12-2.08-1.87-2.8-2.16-.76-.29-1.51-.43-2.33-.31-1.02.15-1.8.58-2.38,1.35-.58.69-.78,1.52-.65,2.42.08.55.28,1.08.59,1.56.31.48.83,1.01,1.5,1.51.4.26,1.62.97,3.67,2.08,2.44,1.33,4.17,2.45,5.15,3.39.98.94,1.54,2.07,1.73,3.33.27,1.89-.2,3.6-1.42,5.15-1.18,1.58-2.81,2.53-4.81,2.82-1.57.23-3.01,0-4.43-.65-1.38-.64-2.72-1.86-4.06-3.63l1.97-1.65c1.94,2.61,3.92,3.77,5.92,3.48.87-.12,1.62-.47,2.31-.98.73-.51,1.2-1.14,1.5-1.86.3-.69.39-1.46.28-2.21-.12-.83-.52-1.65-1.23-2.39-.95-1.03-2.57-1.96-4.91-2.83-2.36-1.31-3.83-2.3-4.44-2.93-1.08-1.09-1.74-2.32-1.95-3.73-.16-1.1-.03-2.16.35-3.14.42-.98,1.07-1.8,1.94-2.45.9-.69,1.93-1.12,3.07-1.29,1.18-.17,2.37-.02,3.47.42Z"/>
    <path class="cls-3" d="M224.51,65.3v2.31s-6.05-.01-6.05-.01l-.05,24.21h-2.27s.04-24.21.04-24.21h-6.04s0-2.32,0-2.32l14.35.03Z"/>
    <path class="cls-3" d="M240.79,68.38c.19.35.32.57.36.85l5.62,25.52-2.4-.34-2.05-9.36-12.99-1.84-4.6,8.42-2.4-.34,12.48-22.96c.16-.26.3-.44.58-.72.77-.65,1.83-.99,2.89-.84s1.94.76,2.5,1.6ZM230.48,81.09l11.29,1.6-2.82-12.72c-.17-.5-.57-.8-1.04-.87s-.94.11-1.2.55l-6.23,11.44Z"/>
    <path class="cls-3" d="M273.02,84.04c-1.31,3.75-5.49,5.96-9.34,4.91l3.07,12.78-2.74-.96-3.01-12.71-5.14-1.8-3.63,10.39-2.14-.75,7.8-22.33c.52-1.5,2.14-2.28,3.65-1.76l6.72,2.35c4.05,1.42,6.16,5.86,4.76,9.87ZM256.61,84.12l7.28,2.54c3.15,1.1,5.91-.29,6.99-3.37,1.13-3.23-.28-5.7-3.38-6.95l-6.72-2.35c-.38-.13-.59-.12-.75.33l-3.42,9.79Z"/>
    <path class="cls-3" d="M290.69,85.27c.67,1.03,1.14,2.53,1.44,4.53l-2.6.43c-.25-1.57-.58-2.73-1-3.4-.45-.68-.97-1.23-1.71-1.62-.91-.48-1.8-.59-2.71-.3-.88.21-1.53.77-1.95,1.58-.26.49-.41,1.04-.44,1.61-.03.57.08,1.3.33,2.1.17.45.75,1.74,1.75,3.84,1.19,2.51,1.94,4.43,2.17,5.77.24,1.34.04,2.58-.56,3.7-.89,1.69-2.28,2.8-4.17,3.33-1.88.58-3.76.4-5.55-.54-1.41-.74-2.43-1.77-3.21-3.12-.74-1.33-1.11-3.1-1.15-5.32l2.56-.18c.04,3.25.96,5.35,2.75,6.3.77.41,1.59.57,2.44.56.89.02,1.64-.21,2.31-.63.65-.38,1.18-.95,1.53-1.62.39-.74.55-1.64.41-2.66-.17-1.39-.93-3.1-2.31-5.17-1.14-2.44-1.75-4.11-1.87-4.98-.24-1.52-.05-2.9.62-4.17.52-.98,1.25-1.77,2.13-2.34.92-.55,1.92-.83,3-.84,1.14-.03,2.22.22,3.24.76,1.05.56,1.93,1.37,2.56,2.38Z"/>
    <path class="cls-3" d="M325.14,121.25l-.11.11c-3.04,3.03-7.76,3.2-10.79.16l-.17-.17-5.45-5.46-7.79,7.78-1.6-1.6c4.72-4.72,9.42-9.47,14.14-14.19l2.56-2.56c1.12-1.12,2.92-1.12,4.02-.03l5.06,5.12c3.03,3.04,3.14,7.81.14,10.82ZM317.53,106.94l-2.56,2.56c-1.6,1.6-3.15,3.2-4.75,4.8l5.31,5.31.14.14c2.13,2.14,5.56,2.19,7.7.06l.06-.06c2.14-2.14,2.17-5.54.03-7.67l-5.14-5.15c-.17-.17-.56-.23-.79,0Z"/>
    <path class="cls-3" d="M339.61,129.7c-.11.38-.18.63-.36.85l-14.29,21.88-1.44-1.95,5.25-8.01-7.78-10.56-9.24,2.61-1.44-1.95,25.13-7.16c.29-.07.53-.09.92-.09,1.01.1,1.98.61,2.62,1.48.64.86.82,1.92.61,2.91ZM323.32,131.24l6.76,9.18,7.11-10.91c.24-.47.18-.97-.11-1.35s-.73-.59-1.24-.47l-12.53,3.56ZM346.65,126.93l-5.44-1.96-1.77-2.4,4.76,1.03,2.45,3.33Z"/>
    <path class="cls-3" d="M351.65,146.6l1.74,3.93s.76,1.58.76,1.57c3.13,6.92.32,14.39-6.63,17.54-6.81,3.09-14.42.25-17.52-6.59l-2.49-5.5-.94-2.06,24.15-10.94.94,2.06ZM329.57,156.61l2.49,5.5c2.54,5.61,8.91,8.01,14.52,5.46,6.16-2.79,8.29-8.29,5.46-14.52l-2.49-5.5-19.99,9.06Z"/>
    <path class="cls-3" d="M363.43,186.67l-2.82-10.97.04.15-.13-.5c-.07-.27-.37-.48-.68-.4l-7.89,2.03,1.86,7.23-2.23.57-1.86-7.24-10.01,2.57c-.39.1-.53.34-.44.69l2.91,11.31-2.19.56-2.91-11.32c-.39-1.5.53-3.05,2.03-3.43l20.17-5.18c1.54-.4,3.09.52,3.47,2.02l2.91,11.31-2.23.57Z"/>
    <path class="cls-3" d="M343.95,198.38l-.24.03c-.32.04-.56.34-.53.66l1.08,9.6-2.25.25-1.08-9.6c-.18-1.58.79-2.97,2.33-3.14l.79-.09,22.91-2.57.25,2.25-23.26,2.61Z"/>
    <path class="cls-3" d="M365.34,248.67l-2.27-.38,1-5.96-23.87-3.99.37-2.23,23.87,3.99,1-5.96,2.27.38-2.37,14.15Z"/>
    <path class="cls-3" d="M344.48,272.12c-7.25-2.36-10.91-9.49-8.55-16.74,2.26-6.95,9.73-10.75,16.68-8.49,6.99,2.28,10.81,9.66,8.52,16.69-2.26,6.95-9.7,10.8-16.65,8.54ZM351.95,249.05c-6.05-1.97-11.92,1.05-13.89,7.1l-.02.08c-1.83,5.76.58,11.56,7.08,13.67,5.89,1.92,11.91-1.14,13.82-7.03,1.87-5.74-1.21-11.93-7-13.81Z"/>
    <path class="cls-3" d="M351.9,286.2l-14.66-8.47c-3.75-2.17-7.88-.97-10.01,2.71-2.09,3.61-.9,7.92,2.67,9.99l14.66,8.47-1.13,1.96c-3.27-1.89-6.52-3.81-9.75-5.68-1.65-.95-3.27-1.89-4.91-2.79-4.82-2.78-6.31-8.23-3.48-13.12,2.64-4.58,8.51-6.15,13.09-3.5l14.66,8.47-1.13,1.96Z"/>
    <path class="cls-3" d="M321.25,316.16c-3.04-2.56-3.6-7.26-1.25-10.47l-13.03-1.69,1.87-2.22,12.95,1.73,3.51-4.16-8.41-7.1,1.46-1.73,18.07,15.26c1.21,1.03,1.37,2.82.34,4.03l-4.59,5.44c-2.77,3.28-7.67,3.67-10.92.92ZM327.03,300.81l-4.97,5.89c-2.15,2.55-1.84,5.63.65,7.73,2.61,2.21,5.42,1.77,7.7-.68l4.59-5.44c.26-.3.32-.51-.04-.81l-7.93-6.69Z"/>
    <path class="cls-3" d="M253.46,361.53l10.84-3.29-.15.05.49-.15c.27-.08.46-.39.37-.69l-2.37-7.8-7.15,2.17-.67-2.21,7.15-2.17-3-9.89c-.12-.38-.36-.51-.71-.41l-11.18,3.4-.66-2.17,11.18-3.4c1.48-.45,3.07.4,3.52,1.88l6.05,19.93c.46,1.52-.38,3.11-1.87,3.56l-11.18,3.4-.67-2.21Z"/>
    <path class="cls-3" d="M237.48,365.93c-1.15-.42-2.43-1.34-3.87-2.76l1.83-1.9c1.14,1.1,2.11,1.83,2.84,2.12.77.28,1.51.4,2.34.27,1.02-.16,1.79-.61,2.35-1.39.57-.7.76-1.53.61-2.43-.09-.55-.29-1.08-.61-1.55-.32-.47-.84-.99-1.53-1.49-.4-.26-1.64-.94-3.71-2.02-2.46-1.29-4.21-2.38-5.2-3.31-.99-.93-1.58-2.04-1.78-3.3-.3-1.88.14-3.61,1.34-5.17,1.15-1.6,2.76-2.58,4.77-2.9,1.57-.25,3.01-.04,4.44.57,1.39.62,2.75,1.81,4.12,3.56l-1.94,1.68c-1.99-2.58-3.98-3.71-5.98-3.38-.86.14-1.61.5-2.29,1.01-.72.52-1.18,1.16-1.47,1.89-.29.69-.37,1.47-.25,2.21.13.82.55,1.64,1.27,2.37.97,1.01,2.6,1.92,4.95,2.75,2.38,1.27,3.86,2.24,4.49,2.86,1.1,1.07,1.78,2.29,2,3.7.18,1.1.07,2.16-.3,3.15-.4.99-1.04,1.82-1.9,2.48-.89.71-1.91,1.15-3.05,1.34-1.18.19-2.37.06-3.48-.36Z"/>
    <path class="cls-3" d="M212.29,368.2l-.03-2.3,6.04-.09-.34-24.2,2.27-.03.34,24.2,6.04-.09.03,2.31-14.35.2Z"/>
    <path class="cls-3" d="M195.98,365.38c-.2-.34-.33-.56-.37-.85l-6.04-25.43,2.41.3,2.2,9.33,13.01,1.63,4.47-8.49,2.41.3-12.1,23.16c-.15.26-.3.44-.57.73-.76.67-1.81,1.02-2.87.88s-1.95-.72-2.53-1.56ZM206.08,352.5l-11.32-1.41,3.02,12.67c.18.5.58.79,1.05.85.47.06.94-.12,1.19-.57l6.05-11.54Z"/>
    <path class="cls-3" d="M163.5,350.23c1.25-3.77,5.4-6.04,9.26-5.05l-3.27-12.73,2.75.91,3.21,12.66,5.17,1.72,3.47-10.45,2.15.71-7.45,22.44c-.5,1.51-2.11,2.32-3.62,1.81l-6.75-2.24c-4.07-1.35-6.25-5.76-4.91-9.8ZM179.9,349.89l-7.32-2.43c-3.17-1.05-5.91.39-6.93,3.48-1.08,3.24.37,5.69,3.49,6.89l6.75,2.24c.38.13.59.11.74-.34l3.27-9.85Z"/>
    <path class="cls-3" d="M145.82,349.3c-.69-1.02-1.18-2.51-1.51-4.5l2.6-.47c.28,1.57.63,2.72,1.05,3.38.46.68.99,1.21,1.74,1.59.92.47,1.81.56,2.72.26.87-.23,1.51-.79,1.93-1.61.25-.5.4-1.05.42-1.62.02-.57-.1-1.3-.36-2.1-.18-.45-.77-1.73-1.81-3.81-1.23-2.5-2.01-4.4-2.27-5.73-.26-1.33-.08-2.58.5-3.71.86-1.7,2.24-2.83,4.12-3.39,1.87-.61,3.75-.46,5.56.45,1.42.72,2.46,1.74,3.26,3.07.76,1.32,1.16,3.08,1.24,5.3l-2.56.22c-.09-3.25-1.04-5.34-2.85-6.25-.78-.39-1.6-.54-2.45-.53-.89,0-1.64.24-2.3.67-.64.39-1.16.97-1.5,1.65-.38.75-.52,1.65-.37,2.67.19,1.39.98,3.08,2.4,5.13,1.18,2.42,1.81,4.08,1.95,4.95.26,1.51.09,2.9-.55,4.18-.5.99-1.22,1.79-2.09,2.37-.91.56-1.91.86-2.99.89-1.14.05-2.22-.19-3.25-.71-1.06-.54-1.95-1.34-2.6-2.34Z"/>
    <path class="cls-3" d="M110.76,313.85l.11-.11c2.99-3.08,7.71-3.32,10.79-.34l.17.17,5.54,5.37,7.66-7.9,1.63,1.58c-4.65,4.79-9.27,9.61-13.91,14.41l-2.52,2.6c-1.11,1.14-2.9,1.17-4.02.09l-5.14-5.04c-3.08-2.99-3.27-7.76-.31-10.81ZM118.59,328.03l2.52-2.6c1.58-1.63,3.1-3.25,4.67-4.88l-5.39-5.23-.14-.14c-2.17-2.1-5.6-2.11-7.7.06l-.05.06c-2.1,2.17-2.08,5.57.09,7.67l5.22,5.06c.17.17.57.22.79-.01Z"/>
    <path class="cls-3" d="M89.16,308.54l5.48,1.88,1.81,2.37-4.78-.96-2.5-3.29ZM96.16,305.65c.11-.38.17-.63.34-.86l13.94-22.11,1.47,1.93-5.12,8.1,7.95,10.44,9.19-2.76,1.47,1.93-25.02,7.56c-.29.07-.52.1-.92.1-1.01-.08-1.99-.58-2.64-1.43-.65-.85-.85-1.9-.66-2.9ZM112.43,303.85l-6.91-9.07-6.94,11.03c-.23.48-.16.97.13,1.35s.74.58,1.24.45l12.48-3.76Z"/>
    <path class="cls-3" d="M83.86,288.94l-1.8-3.9-.78-1.56c-3.24-6.86-.55-14.38,6.35-17.64,6.76-3.19,14.41-.48,17.62,6.31l2.58,5.46.97,2.05-23.97,11.32-.97-2.05ZM105.78,278.58l-2.58-5.46c-2.63-5.57-9.03-7.86-14.6-5.23-6.11,2.89-8.15,8.42-5.23,14.6l2.58,5.46,19.84-9.37Z"/>
    <path class="cls-3" d="M71.44,249.09l3,10.92-.04-.15.14.5c.07.27.38.47.68.39l7.86-2.16-1.98-7.21,2.22-.61,1.98,7.21,9.96-2.73c.38-.1.52-.35.43-.69l-3.09-11.27,2.18-.6,3.09,11.27c.41,1.49-.48,3.06-1.97,3.47l-20.08,5.51c-1.53.42-3.1-.47-3.51-1.96l-3.09-11.27,2.22-.61Z"/>
    <path class="cls-3" d="M90.73,237.03l.24-.03c.32-.04.56-.35.52-.67l-1.23-9.58,2.25-.29,1.23,9.58c.2,1.58-.74,2.98-2.28,3.18l-.79.1-22.87,2.94-.29-2.25,23.22-2.98Z"/>
    <path class="cls-3" d="M68.54,187.13l2.28.34-.9,5.97,23.93,3.6-.34,2.24-23.93-3.6-.9,5.97-2.28-.34,2.14-14.19Z"/>
    <path class="cls-3" d="M89.01,163.34c7.29,2.24,11.07,9.31,8.82,16.6-2.15,6.99-9.55,10.91-16.54,8.76-7.03-2.16-10.97-9.49-8.8-16.55,2.15-6.99,9.52-10.96,16.51-8.81ZM81.92,186.52c6.08,1.87,11.9-1.25,13.77-7.32l.02-.08c1.74-5.79-.77-11.55-7.31-13.56-5.93-1.82-11.89,1.33-13.71,7.26-1.78,5.77,1.41,11.91,7.22,13.7Z"/>
    <path class="cls-3" d="M81.38,149.37l14.79,8.23c3.78,2.11,7.9.85,9.96-2.87,2.03-3.65.78-7.94-2.83-9.94l-14.79-8.23,1.1-1.98c3.3,1.84,6.58,3.71,9.84,5.52,1.67.93,3.3,1.84,4.95,2.71,4.86,2.71,6.44,8.13,3.69,13.06-2.57,4.62-8.41,6.28-13.03,3.71l-14.79-8.23,1.1-1.98Z"/>
    <path class="cls-3" d="M111.56,118.9c3.08,2.52,3.72,7.2,1.42,10.45l13.06,1.49-1.84,2.25-12.98-1.52-3.45,4.22,8.52,6.97-1.43,1.75-18.31-14.97c-1.23-1.01-1.41-2.8-.4-4.03l4.5-5.51c2.72-3.32,7.61-3.79,10.91-1.09ZM106.02,134.34l4.88-5.97c2.11-2.58,1.75-5.65-.77-7.72-2.65-2.16-5.45-1.68-7.69.8l-4.5,5.51c-.25.31-.32.51.05.81l8.03,6.57Z"/>
  </g>
  <polygon class="cls-2" points="141.78 88.93 145.24 98.3 154.61 101.76 145.24 105.23 141.78 114.59 138.31 105.23 128.95 101.76 138.31 98.3 141.78 88.93"/>
  <polygon class="cls-2" points="293.96 320.13 297.58 329.91 307.35 333.52 297.58 337.14 293.96 346.91 290.35 337.14 280.57 333.52 290.35 329.91 293.96 320.13"/>
</svg>